<?xml version="1.0" encoding="UTF-8" standalone="no"?>
<!-- Created with Inkscape (http://www.inkscape.org/) -->
<svg
   xmlns:svg="http://www.w3.org/2000/svg"
   xmlns="http://www.w3.org/2000/svg"
   version="1.0"
   width="660"
   height="650"
   id="svg2">
  <defs
     id="defs5">
    <marker
       refX="0"
       refY="0"
       orient="auto"
       style="overflow:visible"
       id="Arrow1Lend">
      <path
         d="M 0,0 L 5,-5 L -12.5,0 L 5,5 L 0,0 z "
         transform="scale(-0.8,-0.8)"
         style="fill-rule:evenodd;stroke:#000000;stroke-width:1pt;marker-start:none"
         id="path5010" />
    </marker>
    <marker
       refX="0"
       refY="0"
       orient="auto"
       style="overflow:visible"
       id="Arrow1Lstart">
      <path
         d="M 0,0 L 5,-5 L -12.5,0 L 5,5 L 0,0 z "
         transform="scale(0.8,0.8)"
         style="fill-rule:evenodd;stroke:#000000;stroke-width:1pt;marker-start:none"
         id="path5013" />
    </marker>
  </defs>
  <g
     id="g8792">
    <path
       d="M 601.54607,568.17987 A 291.76831,273.09512 0 1 1 601.75276,568.01886"
       transform="matrix(1.004319,0,0,1.072738,-90.39396,-60.91824)"
       style="fill:#ffffff;fill-opacity:0.78431373;fill-rule:evenodd;stroke:#a9a9a9;stroke-width:2.89027119;stroke-linecap:round;stroke-linejoin:round;stroke-miterlimit:4;stroke-dasharray:none;stroke-opacity:1"
       id="path6156" />
    <path
       d="M 304.07284,520.70731 C 293.75522,387.33643 296.66976,265.33694 306.90235,154.2646"
       style="fill:none;fill-opacity:0.75;fill-rule:evenodd;stroke:#ff8300;stroke-width:1;stroke-linecap:butt;stroke-linejoin:miter;marker-start:none;marker-end:none;stroke-miterlimit:4;stroke-dasharray:none;stroke-opacity:1"
       id="path3965" />
    <path
       d="M 33.80341,325.74244 C 34.16489,312.01892 70.13648,298.4149 139.45644,288.96119 C 263.83702,271.99844 448.51129,274.78941 551.92639,295.19105 C 596.39029,303.96284 618.59516,314.57163 619.57344,325.16344"
       style="fill:none;fill-opacity:1;fill-rule:evenodd;stroke:#a9a9a9;stroke-width:3;stroke-linecap:round;stroke-linejoin:round;stroke-miterlimit:4;stroke-dasharray:18, 18;stroke-dashoffset:0;stroke-opacity:1"
       id="path2197" />
    <path
       d="M 326.88289,32.51287 C 340.60641,32.87435 354.21043,68.84594 363.66414,138.1659 C 380.62689,262.54648 377.83592,447.22075 357.43428,550.63585 C 348.66249,595.09975 338.0537,617.30462 327.46189,618.2829"
       style="fill:none;fill-opacity:1;fill-rule:evenodd;stroke:#a9a9a9;stroke-width:3;stroke-linecap:round;stroke-linejoin:round;stroke-miterlimit:4;stroke-dasharray:18, 18;stroke-dashoffset:0;stroke-opacity:1"
       id="path3082" />
    <path
       d="M 279.64785,373.11012 L 373.96838,278.48322"
       style="fill:none;fill-opacity:0.75;fill-rule:evenodd;stroke:#000000;stroke-width:2;stroke-linecap:round;stroke-linejoin:miter;stroke-miterlimit:4;stroke-dasharray:none;stroke-opacity:1"
       id="path3086" />
    <path
       d="M 619.57344,325.16344 C 620.86914,339.19183 584.92944,353.19044 514.15304,362.85182 C 389.567,379.85852 204.8906,377.05193 101.47549,356.6503 C 55.69584,347.61893 33.51629,336.64299 33.80341,325.74244"
       style="fill:none;fill-opacity:1;fill-rule:evenodd;stroke:#a9a9a9;stroke-width:3;stroke-linecap:round;stroke-linejoin:round;stroke-miterlimit:4;stroke-dasharray:none;stroke-dashoffset:0;stroke-opacity:1"
       id="path1318" />
    <path
       d="M 327.46189,618.21033 C 313.4335,619.50603 299.43489,583.56633 289.77351,512.78993 C 284.55405,474.5537 281.20083,430.65748 279.64973,385.18745 C 276.14683,282.50135 281.83479,171.78875 295.97503,100.11238 C 305.0064,54.33273 315.98234,32.15318 326.88289,32.4403"
       style="fill:none;fill-opacity:1;fill-rule:evenodd;stroke:#a9a9a9;stroke-width:3;stroke-linecap:round;stroke-linejoin:round;stroke-miterlimit:4;stroke-dasharray:none;stroke-opacity:1"
       id="path3080" />
    <path
       d="M 326.93106,32.945006 L 326.20698,617.99135"
       style="fill:none;fill-opacity:0.75;fill-rule:evenodd;stroke:#000000;stroke-width:2;stroke-linecap:round;stroke-linejoin:miter;stroke-miterlimit:4;stroke-dasharray:none;stroke-opacity:1"
       id="path3084" />
    <path
       d="M 601.54607,568.17987 A 291.76831,273.09512 0 1 1 601.75276,568.01886"
       transform="matrix(1.004319,0,0,1.072738,-89.75813,-58.94009)"
       style="fill:none;fill-opacity:1;fill-rule:evenodd;stroke:#a9a9a9;stroke-width:2.89027119;stroke-linecap:round;stroke-linejoin:round;stroke-miterlimit:4;stroke-dasharray:none;stroke-opacity:1"
       id="path1316" />
    <path
       d="M 344.5466,515.27892 C 358.09436,392.61077 362.54177,267.60397 344.39895,139.00274"
       style="fill:none;fill-opacity:0.75;fill-rule:evenodd;stroke:#ff8300;stroke-width:1;stroke-linecap:butt;stroke-linejoin:miter;marker-start:none;marker-end:none;stroke-miterlimit:4;stroke-dasharray:none;stroke-opacity:1"
       id="path5022" />
    <path
       d="M 156.60679,303.68692 C -173.88709,376.49005 823.62486,362.25672 498.99041,303.68692"
       style="fill:none;fill-opacity:0.75;fill-rule:evenodd;stroke:#ff8300;stroke-width:1;stroke-linecap:butt;stroke-linejoin:miter;marker-start:none;marker-end:none;stroke-miterlimit:4;stroke-dasharray:none;stroke-opacity:1"
       id="path5898" />
    <path
       d="M 14.168791,332.4599 L 11.766448,332.4599 L 7.9226976,322.74506 L 3.6922289,332.4599 L 1.3953539,332.4599 L 6.8445726,320.0849 L 4.3250414,314.22552 L 6.7976976,314.22552 L 14.168791,332.4599 M 17.426604,321.56146 L 32.450041,321.56146 L 32.450041,323.53021 L 17.426604,323.53021 L 17.426604,321.56146 M 17.426604,326.34271 L 32.450041,326.34271 L 32.450041,328.3349 L 17.426604,328.3349 L 17.426604,326.34271 M 36.164885,324.92474 L 42.481291,324.92474 L 42.481291,326.84662 L 36.164885,326.84662 L 36.164885,324.92474 M 46.301604,332.09662 L 46.301604,329.94037 C 46.895351,330.22162 47.496913,330.43646 48.106291,330.5849 C 48.715661,330.73334 49.313317,330.80756 49.89926,330.80756 C 51.461752,330.80756 52.653157,330.28412 53.473479,329.23724 C 54.301593,328.18256 54.774249,326.58491 54.891448,324.44427 C 54.438312,325.11616 53.864094,325.63178 53.168791,325.99115 C 52.47347,326.35053 51.70394,326.53022 50.860198,326.53021 C 49.110192,326.53022 47.723475,326.00288 46.700041,324.94818 C 45.684414,323.88569 45.176602,322.43647 45.176604,320.60052 C 45.176602,318.80366 45.707852,317.36226 46.770354,316.27631 C 47.83285,315.19039 49.246911,314.64742 51.012541,314.6474 C 53.035969,314.64742 54.578937,315.42476 55.641448,316.97943 C 56.711747,318.52632 57.246903,320.77632 57.246916,323.72943 C 57.246903,326.48725 56.590653,328.69037 55.278166,330.33881 C 53.973469,331.97943 52.215658,332.79974 50.004729,332.79974 C 49.410973,332.79974 48.809411,332.74115 48.200041,332.62396 C 47.590662,332.50677 46.957851,332.33099 46.301604,332.09662 M 51.012541,324.67865 C 52.075033,324.67866 52.914876,324.31538 53.532073,323.58881 C 54.157062,322.86225 54.469562,321.86616 54.469573,320.60052 C 54.469562,319.34273 54.157062,318.35054 53.532073,317.62396 C 52.914876,316.8896 52.075033,316.52242 51.012541,316.5224 C 49.950035,316.52242 49.106286,316.8896 48.481291,317.62396 C 47.8641,318.35054 47.555506,319.34273 47.55551,320.60052 C 47.555506,321.86616 47.8641,322.86225 48.481291,323.58881 C 49.106286,324.31538 49.950035,324.67866 51.012541,324.67865 M 66.575041,316.5224 C 65.356285,316.52242 64.438317,317.12398 63.821135,318.32709 C 63.211756,319.52241 62.907069,321.32319 62.907073,323.72943 C 62.907069,326.12787 63.211756,327.92865 63.821135,329.13177 C 64.438317,330.32709 65.356285,330.92475 66.575041,330.92474 C 67.801595,330.92475 68.719563,330.32709 69.328948,329.13177 C 69.946124,327.92865 70.254718,326.12787 70.254729,323.72943 C 70.254718,321.32319 69.946124,319.52241 69.328948,318.32709 C 68.719563,317.12398 67.801595,316.52242 66.575041,316.5224 M 66.575041,314.6474 C 68.535969,314.64742 70.032062,315.42476 71.063323,316.97943 C 72.102372,318.52632 72.621903,320.77632 72.621916,323.72943 C 72.621903,326.67475 72.102372,328.92475 71.063323,330.47943 C 70.032062,332.02631 68.535969,332.79974 66.575041,332.79974 C 64.614098,332.79974 63.1141,332.02631 62.075041,330.47943 C 61.043789,328.92475 60.528165,326.67475 60.528166,323.72943 C 60.528165,320.77632 61.043789,318.52632 62.075041,316.97943 C 63.1141,315.42476 64.614098,314.64742 66.575041,314.6474 M 80.227385,316.15912 C 79.60238,316.15913 79.075037,316.37788 78.645354,316.81537 C 78.215662,317.24507 78.000819,317.77241 78.000823,318.3974 C 78.000819,319.0146 78.215662,319.53804 78.645354,319.96771 C 79.075037,320.3896 79.60238,320.60054 80.227385,320.60052 C 80.852378,320.60054 81.379722,320.3896 81.809416,319.96771 C 82.239096,319.53804 82.453939,319.0146 82.453948,318.3974 C 82.453939,317.78023 82.23519,317.25288 81.797698,316.81537 C 81.368003,316.37788 80.844566,316.15913 80.227385,316.15912 M 80.227385,314.6474 C 80.727379,314.64742 81.207847,314.74507 81.668791,314.94037 C 82.129721,315.12789 82.528158,315.40132 82.864104,315.76068 C 83.22347,316.11226 83.493001,316.5107 83.672698,316.95599 C 83.852375,317.40132 83.942219,317.88179 83.942229,318.3974 C 83.942219,319.42866 83.578938,320.30366 82.852385,321.0224 C 82.133627,321.73335 81.250816,322.08882 80.203948,322.08881 C 79.149255,322.08882 78.27035,321.73725 77.567229,321.03412 C 76.864101,320.33101 76.512539,319.4521 76.512541,318.3974 C 76.512539,317.35054 76.871914,316.46382 77.590666,315.73724 C 78.309412,315.0107 79.188318,314.64742 80.227385,314.6474"
       style="font-size:12px;font-style:normal;font-weight:normal;line-height:125%;fill:#000000;fill-opacity:1;stroke:none;stroke-width:1px;stroke-linecap:butt;stroke-linejoin:miter;stroke-opacity:1;font-family:Bitstream Vera Sans"
       id="text5901" />
    <path
       d="M 599.70734,329.77805 L 597.30499,329.77805 L 593.46124,320.0632 L 589.23077,329.77805 L 586.9339,329.77805 L 592.38312,317.40305 L 589.86359,311.54367 L 592.33624,311.54367 L 599.70734,329.77805 M 602.96515,318.87961 L 617.98859,318.87961 L 617.98859,320.84836 L 602.96515,320.84836 L 602.96515,318.87961 M 602.96515,323.66086 L 617.98859,323.66086 L 617.98859,325.65305 L 602.96515,325.65305 L 602.96515,323.66086 M 623.16827,329.41476 L 623.16827,327.25851 C 623.76202,327.53977 624.36358,327.75461 624.97296,327.90305 C 625.58233,328.05148 626.17999,328.1257 626.76593,328.1257 C 628.32842,328.1257 629.51983,327.60227 630.34015,326.55539 C 631.16826,325.50071 631.64092,323.90305 631.75812,321.76242 C 631.30498,322.4343 630.73076,322.94993 630.03546,323.3093 C 629.34014,323.66868 628.57061,323.84836 627.72687,323.84836 C 625.97686,323.84836 624.59014,323.32102 623.56671,322.26633 C 622.55108,321.20384 622.04327,319.75462 622.04327,317.91867 C 622.04327,316.12181 622.57452,314.6804 623.63702,313.59445 C 624.69952,312.50853 626.11358,311.96556 627.87921,311.96555 C 629.90264,311.96556 631.44561,312.74291 632.50812,314.29758 C 633.57842,315.84447 634.11357,318.09446 634.11359,321.04758 C 634.11357,323.8054 633.45732,326.00852 632.14484,327.65695 C 630.84014,329.29758 629.08233,330.11789 626.8714,330.11789 C 626.27764,330.11789 625.67608,330.0593 625.06671,329.94211 C 624.45733,329.82492 623.82452,329.64914 623.16827,329.41476 M 627.87921,321.9968 C 628.9417,321.9968 629.78155,321.63352 630.39874,320.90695 C 631.02373,320.1804 631.33623,319.18431 631.33624,317.91867 C 631.33623,316.66087 631.02373,315.66868 630.39874,314.94211 C 629.78155,314.20775 628.9417,313.84056 627.87921,313.84055 C 626.81671,313.84056 625.97296,314.20775 625.34796,314.94211 C 624.73077,315.66868 624.42218,316.66087 624.42218,317.91867 C 624.42218,319.18431 624.73077,320.1804 625.34796,320.90695 C 625.97296,321.63352 626.81671,321.9968 627.87921,321.9968 M 643.44171,313.84055 C 642.22296,313.84056 641.30499,314.44212 640.68781,315.64523 C 640.07843,316.84056 639.77374,318.64134 639.77374,321.04758 C 639.77374,323.44602 640.07843,325.2468 640.68781,326.44992 C 641.30499,327.64524 642.22296,328.24289 643.44171,328.24289 C 644.66827,328.24289 645.58623,327.64524 646.19562,326.44992 C 646.81279,325.2468 647.12139,323.44602 647.1214,321.04758 C 647.12139,318.64134 646.81279,316.84056 646.19562,315.64523 C 645.58623,314.44212 644.66827,313.84056 643.44171,313.84055 M 643.44171,311.96555 C 645.40264,311.96556 646.89873,312.74291 647.92999,314.29758 C 648.96904,315.84447 649.48857,318.09446 649.48859,321.04758 C 649.48857,323.9929 648.96904,326.24289 647.92999,327.79758 C 646.89873,329.34445 645.40264,330.11789 643.44171,330.11789 C 641.48077,330.11789 639.98077,329.34445 638.94171,327.79758 C 637.91046,326.24289 637.39483,323.9929 637.39484,321.04758 C 637.39483,318.09446 637.91046,315.84447 638.94171,314.29758 C 639.98077,312.74291 641.48077,311.96556 643.44171,311.96555 M 657.09406,313.47726 C 656.46905,313.47728 655.94171,313.69603 655.51202,314.13351 C 655.08233,314.56322 654.86749,315.09056 654.86749,315.71555 C 654.86749,316.33275 655.08233,316.85618 655.51202,317.28586 C 655.94171,317.70775 656.46905,317.91868 657.09406,317.91867 C 657.71905,317.91868 658.24639,317.70775 658.67609,317.28586 C 659.10577,316.85618 659.32061,316.33275 659.32062,315.71555 C 659.32061,315.09837 659.10186,314.57103 658.66437,314.13351 C 658.23467,313.69603 657.71124,313.47728 657.09406,313.47726 M 657.09406,311.96555 C 657.59405,311.96556 658.07452,312.06322 658.53546,312.25851 C 658.99639,312.44603 659.39483,312.71947 659.73077,313.07883 C 660.09014,313.43041 660.35967,313.82884 660.53937,314.27414 C 660.71905,314.71947 660.80889,315.19994 660.8089,315.71555 C 660.80889,316.74681 660.44561,317.62181 659.71906,318.34055 C 659.0003,319.05149 658.11749,319.40696 657.07062,319.40695 C 656.01593,319.40696 655.13702,319.0554 654.4339,318.35226 C 653.73077,317.64915 653.37921,316.77025 653.37921,315.71555 C 653.37921,314.66869 653.73858,313.78197 654.45734,313.05539 C 655.17608,312.32884 656.05499,311.96556 657.09406,311.96555"
       style="font-size:12px;font-style:normal;font-weight:normal;line-height:125%;fill:#000000;fill-opacity:1;stroke:none;stroke-width:1px;stroke-linecap:butt;stroke-linejoin:miter;stroke-opacity:1;font-family:Bitstream Vera Sans"
       id="text5907" />
    <path
       d="M 260.89952,247.53447 L 258.49718,247.53447 L 254.65343,237.81963 L 250.42296,247.53447 L 248.12608,247.53447 L 253.5753,235.15947 L 251.05577,229.30009 L 253.52843,229.30009 L 260.89952,247.53447 M 264.15733,236.63603 L 279.18077,236.63603 L 279.18077,238.60478 L 264.15733,238.60478 L 264.15733,236.63603 M 264.15733,241.41728 L 279.18077,241.41728 L 279.18077,243.40947 L 264.15733,243.40947 L 264.15733,241.41728 M 289.35265,231.59697 C 288.13389,231.59699 287.21592,232.19855 286.59874,233.40166 C 285.98936,234.59698 285.68467,236.39776 285.68468,238.804 C 285.68467,241.20244 285.98936,243.00322 286.59874,244.20634 C 287.21592,245.40166 288.13389,245.99931 289.35265,245.99931 C 290.5792,245.99931 291.49717,245.40166 292.10655,244.20634 C 292.72373,243.00322 293.03232,241.20244 293.03233,238.804 C 293.03232,236.39776 292.72373,234.59698 292.10655,233.40166 C 291.49717,232.19855 290.5792,231.59699 289.35265,231.59697 M 289.35265,229.72197 C 291.31357,229.72199 292.80967,230.49933 293.84093,232.054 C 294.87998,233.60089 295.39951,235.85089 295.39952,238.804 C 295.39951,241.74932 294.87998,243.99932 293.84093,245.554 C 292.80967,247.10088 291.31357,247.87431 289.35265,247.87431 C 287.3917,247.87431 285.8917,247.10088 284.85265,245.554 C 283.82139,243.99932 283.30577,241.74932 283.30577,238.804 C 283.30577,235.85089 283.82139,233.60089 284.85265,232.054 C 285.8917,230.49933 287.3917,229.72199 289.35265,229.72197 M 303.00499,231.23369 C 302.37998,231.2337 301.85264,231.45245 301.42296,231.88994 C 300.99327,232.31964 300.77842,232.84698 300.77843,233.47197 C 300.77842,234.08917 300.99327,234.61261 301.42296,235.04228 C 301.85264,235.46417 302.37998,235.67511 303.00499,235.67509 C 303.62998,235.67511 304.15733,235.46417 304.58702,235.04228 C 305.0167,234.61261 305.23154,234.08917 305.23155,233.47197 C 305.23154,232.8548 305.01279,232.32745 304.5753,231.88994 C 304.14561,231.45245 303.62217,231.2337 303.00499,231.23369 M 303.00499,229.72197 C 303.50498,229.72199 303.98545,229.81964 304.4464,230.01494 C 304.90733,230.20246 305.30576,230.47589 305.64171,230.83525 C 306.00107,231.18683 306.27061,231.58527 306.4503,232.03056 C 306.62998,232.47589 306.71982,232.95636 306.71983,233.47197 C 306.71982,234.50323 306.35654,235.37823 305.62999,236.09697 C 304.91123,236.80792 304.02842,237.16339 302.98155,237.16338 C 301.92686,237.16339 301.04795,236.81182 300.34483,236.10869 C 299.64171,235.40558 299.29014,234.52667 299.29015,233.47197 C 299.29014,232.42511 299.64952,231.53839 300.36827,230.81181 C 301.08702,230.08527 301.96592,229.72199 303.00499,229.72197"
       style="font-size:12px;font-style:normal;font-weight:normal;line-height:125%;fill:#000000;fill-opacity:1;stroke:none;stroke-width:1px;stroke-linecap:butt;stroke-linejoin:miter;stroke-opacity:1;font-family:Bitstream Vera Sans"
       id="text5911" />
    <path
       d="M 117.86721,351.23288 L 115.46487,351.23288 L 111.62112,341.51804 L 107.39065,351.23288 L 105.09377,351.23288 L 110.54299,338.85788 L 108.02346,332.9985 L 110.49612,332.9985 L 117.86721,351.23288"
       style="font-size:12px;font-style:normal;font-weight:normal;line-height:125%;fill:#ff8403;fill-opacity:1;stroke:none;stroke-width:1px;stroke-linecap:butt;stroke-linejoin:miter;stroke-opacity:1;font-family:Bitstream Vera Sans"
       id="text5915" />
    <path
       d="M 530.87305,318.15665 L 528.4707,318.15665 L 524.62695,308.4418 L 520.39648,318.15665 L 518.09961,318.15665 L 523.54883,305.78165 L 521.0293,299.92227 L 523.50195,299.92227 L 530.87305,318.15665"
       style="font-size:12px;font-style:normal;font-weight:normal;line-height:125%;fill:#ff8403;fill-opacity:1;stroke:none;stroke-width:1px;stroke-linecap:butt;stroke-linejoin:miter;stroke-opacity:1;font-family:Bitstream Vera Sans"
       id="text5919" />
    <path
       d="M 353.87057,248.42845 L 351.46823,248.42845 L 347.62448,238.71361 L 343.39401,248.42845 L 341.09714,248.42845 L 346.54636,236.05345 L 344.02682,230.19408 L 346.49948,230.19408 L 353.87057,248.42845 M 357.12839,237.53001 L 372.15182,237.53001 L 372.15182,239.49876 L 357.12839,239.49876 L 357.12839,237.53001 M 357.12839,242.31126 L 372.15182,242.31126 L 372.15182,244.30345 L 357.12839,244.30345 L 357.12839,242.31126 M 377.67136,246.43626 L 381.53854,246.43626 L 381.53854,233.08861 L 377.33151,233.93236 L 377.33151,231.77611 L 381.51511,230.93236 L 383.88229,230.93236 L 383.88229,246.43626 L 387.74948,246.43626 L 387.74948,248.42845 L 377.67136,248.42845 L 377.67136,246.43626 M 397.60495,240.11986 C 396.47994,240.11987 395.59323,240.42065 394.94479,241.0222 C 394.30416,241.62377 393.98385,242.4519 393.98386,243.50658 C 393.98385,244.56127 394.30416,245.38939 394.94479,245.99095 C 395.59323,246.59252 396.47994,246.8933 397.60495,246.8933 C 398.72994,246.8933 399.61666,246.59252 400.26511,245.99095 C 400.91353,245.38158 401.23775,244.55346 401.23776,243.50658 C 401.23775,242.4519 400.91353,241.62377 400.26511,241.0222 C 399.62447,240.42065 398.73775,240.11987 397.60495,240.11986 M 395.23776,239.11205 C 394.22213,238.86205 393.42917,238.3894 392.85886,237.69408 C 392.29635,236.99878 392.0151,236.15112 392.01511,235.15111 C 392.0151,233.75268 392.5112,232.64722 393.50339,231.8347 C 394.50338,231.02222 395.87057,230.61597 397.60495,230.61595 C 399.34713,230.61597 400.71431,231.02222 401.70651,231.8347 C 402.69869,232.64722 403.19478,233.75268 403.19479,235.15111 C 403.19478,236.15112 402.90962,236.99878 402.33932,237.69408 C 401.77681,238.3894 400.99166,238.86205 399.98386,239.11205 C 401.12447,239.37768 402.01119,239.89721 402.64401,240.67064 C 403.28462,241.44408 403.60494,242.3894 403.60495,243.50658 C 403.60494,245.20189 403.08541,246.50267 402.04636,247.40892 C 401.0151,248.31517 399.53463,248.76829 397.60495,248.7683 C 395.67526,248.76829 394.19088,248.31517 393.15182,247.40892 C 392.12057,246.50267 391.60495,245.20189 391.60495,243.50658 C 391.60495,242.3894 391.92526,241.44408 392.56589,240.67064 C 393.20651,239.89721 394.09713,239.37768 395.23776,239.11205 M 394.37057,235.37376 C 394.37057,236.28003 394.65182,236.98706 395.21432,237.49486 C 395.78463,238.00268 396.58151,238.25659 397.60495,238.25658 C 398.62057,238.25659 399.41353,238.00268 399.98386,237.49486 C 400.56197,236.98706 400.85103,236.28003 400.85104,235.37376 C 400.85103,234.46753 400.56197,233.7605 399.98386,233.25267 C 399.41353,232.74487 398.62057,232.49097 397.60495,232.49095 C 396.58151,232.49097 395.78463,232.74487 395.21432,233.25267 C 394.65182,233.7605 394.37057,234.46753 394.37057,235.37376 M 412.8862,232.49095 C 411.66744,232.49097 410.74948,233.09253 410.13229,234.29564 C 409.52291,235.49096 409.21823,237.29174 409.21823,239.69798 C 409.21823,242.09643 409.52291,243.89721 410.13229,245.10033 C 410.74948,246.29564 411.66744,246.8933 412.8862,246.8933 C 414.11275,246.8933 415.03072,246.29564 415.64011,245.10033 C 416.25728,243.89721 416.56588,242.09643 416.56589,239.69798 C 416.56588,237.29174 416.25728,235.49096 415.64011,234.29564 C 415.03072,233.09253 414.11275,232.49097 412.8862,232.49095 M 412.8862,230.61595 C 414.84713,230.61597 416.34322,231.39331 417.37448,232.94798 C 418.41353,234.49487 418.93306,236.74487 418.93307,239.69798 C 418.93306,242.6433 418.41353,244.8933 417.37448,246.44798 C 416.34322,247.99486 414.84713,248.76829 412.8862,248.7683 C 410.92526,248.76829 409.42526,247.99486 408.3862,246.44798 C 407.35495,244.8933 406.83932,242.6433 406.83932,239.69798 C 406.83932,236.74487 407.35495,234.49487 408.3862,232.94798 C 409.42526,231.39331 410.92526,230.61597 412.8862,230.61595 M 426.53854,232.12767 C 425.91354,232.12769 425.3862,232.34644 424.95651,232.78392 C 424.52682,233.21362 424.31198,233.74097 424.31198,234.36595 C 424.31198,234.98315 424.52682,235.50659 424.95651,235.93626 C 425.3862,236.35815 425.91354,236.56909 426.53854,236.56908 C 427.16354,236.56909 427.69088,236.35815 428.12057,235.93626 C 428.55025,235.50659 428.7651,234.98315 428.76511,234.36595 C 428.7651,233.74878 428.54635,233.22144 428.10886,232.78392 C 427.67916,232.34644 427.15572,232.12769 426.53854,232.12767 M 426.53854,230.61595 C 427.03854,230.61597 427.51901,230.71363 427.97995,230.90892 C 428.44088,231.09644 428.83932,231.36987 429.17526,231.72923 C 429.53463,232.08081 429.80416,232.47925 429.98386,232.92455 C 430.16353,233.36987 430.25338,233.85034 430.25339,234.36595 C 430.25338,235.39721 429.8901,236.27221 429.16354,236.99095 C 428.44479,237.7019 427.56197,238.05737 426.51511,238.05736 C 425.46041,238.05737 424.58151,237.70581 423.87839,237.00267 C 423.17526,236.29956 422.8237,235.42065 422.8237,234.36595 C 422.8237,233.31909 423.18307,232.43237 423.90182,231.7058 C 424.62057,230.97925 425.49948,230.61597 426.53854,230.61595"
       style="font-size:12px;font-style:normal;font-weight:normal;line-height:125%;fill:#000000;fill-opacity:1;stroke:none;stroke-width:1px;stroke-linecap:butt;stroke-linejoin:miter;stroke-opacity:1;font-family:Bitstream Vera Sans"
       id="text5923" />
    <path
       d="M 354.76453,343.18735 L 352.36218,343.18735 L 348.51843,333.4725 L 344.28796,343.18735 L 341.99109,343.18735 L 347.44031,330.81235 L 344.92078,324.95297 L 347.39343,324.95297 L 354.76453,343.18735 M 358.02234,332.28891 L 373.04578,332.28891 L 373.04578,334.25766 L 358.02234,334.25766 L 358.02234,332.28891 M 358.02234,337.07016 L 373.04578,337.07016 L 373.04578,339.06235 L 358.02234,339.06235 L 358.02234,337.07016 M 376.76062,335.65219 L 383.07703,335.65219 L 383.07703,337.57407 L 376.76062,337.57407 L 376.76062,335.65219 M 387.23718,341.19516 L 391.10437,341.19516 L 391.10437,327.8475 L 386.89734,328.69125 L 386.89734,326.535 L 391.08093,325.69125 L 393.44812,325.69125 L 393.44812,341.19516 L 397.31531,341.19516 L 397.31531,343.18735 L 387.23718,343.18735 L 387.23718,341.19516 M 407.17078,334.87875 C 406.04577,334.87876 405.15905,335.17954 404.51062,335.7811 C 403.86999,336.38267 403.54968,337.21079 403.54968,338.26547 C 403.54968,339.32016 403.86999,340.14829 404.51062,340.74985 C 405.15905,341.35141 406.04577,341.65219 407.17078,341.65219 C 408.29577,341.65219 409.18249,341.35141 409.83093,340.74985 C 410.47936,340.14048 410.80358,339.31235 410.80359,338.26547 C 410.80358,337.21079 410.47936,336.38267 409.83093,335.7811 C 409.1903,335.17954 408.30358,334.87876 407.17078,334.87875 M 404.80359,333.87094 C 403.78796,333.62095 402.99499,333.14829 402.42468,332.45297 C 401.86218,331.75767 401.58093,330.91002 401.58093,329.91 C 401.58093,328.51158 402.07702,327.40611 403.06921,326.5936 C 404.06921,325.78111 405.4364,325.37487 407.17078,325.37485 C 408.91295,325.37487 410.28014,325.78111 411.27234,326.5936 C 412.26451,327.40611 412.76061,328.51158 412.76062,329.91 C 412.76061,330.91002 412.47545,331.75767 411.90515,332.45297 C 411.34264,333.14829 410.55748,333.62095 409.54968,333.87094 C 410.6903,334.13658 411.57701,334.65611 412.20984,335.42953 C 412.85045,336.20298 413.17076,337.14829 413.17078,338.26547 C 413.17076,339.96079 412.65123,341.26157 411.61218,342.16782 C 410.58092,343.07407 409.10045,343.52719 407.17078,343.52719 C 405.24108,343.52719 403.75671,343.07407 402.71765,342.16782 C 401.6864,341.26157 401.17077,339.96079 401.17078,338.26547 C 401.17077,337.14829 401.49109,336.20298 402.13171,335.42953 C 402.77234,334.65611 403.66296,334.13658 404.80359,333.87094 M 403.9364,330.13266 C 403.9364,331.03892 404.21765,331.74595 404.78015,332.25375 C 405.35046,332.76158 406.14733,333.01548 407.17078,333.01547 C 408.18639,333.01548 408.97936,332.76158 409.54968,332.25375 C 410.1278,331.74595 410.41686,331.03892 410.41687,330.13266 C 410.41686,329.22642 410.1278,328.51939 409.54968,328.01157 C 408.97936,327.50377 408.18639,327.24986 407.17078,327.24985 C 406.14733,327.24986 405.35046,327.50377 404.78015,328.01157 C 404.21765,328.51939 403.9364,329.22642 403.9364,330.13266 M 422.45203,327.24985 C 421.23327,327.24986 420.3153,327.85143 419.69812,329.05453 C 419.08874,330.24986 418.78405,332.05064 418.78406,334.45688 C 418.78405,336.85532 419.08874,338.6561 419.69812,339.85922 C 420.3153,341.05454 421.23327,341.65219 422.45203,341.65219 C 423.67858,341.65219 424.59655,341.05454 425.20593,339.85922 C 425.82311,338.6561 426.1317,336.85532 426.13171,334.45688 C 426.1317,332.05064 425.82311,330.24986 425.20593,329.05453 C 424.59655,327.85143 423.67858,327.24986 422.45203,327.24985 M 422.45203,325.37485 C 424.41295,325.37487 425.90905,326.15221 426.94031,327.70688 C 427.97936,329.25377 428.49889,331.50377 428.4989,334.45688 C 428.49889,337.4022 427.97936,339.65219 426.94031,341.20688 C 425.90905,342.75375 424.41295,343.52719 422.45203,343.52719 C 420.49108,343.52719 418.99108,342.75375 417.95203,341.20688 C 416.92077,339.65219 416.40515,337.4022 416.40515,334.45688 C 416.40515,331.50377 416.92077,329.25377 417.95203,327.70688 C 418.99108,326.15221 420.49108,325.37487 422.45203,325.37485 M 436.10437,326.88657 C 435.47936,326.88658 434.95202,327.10533 434.52234,327.54282 C 434.09265,327.97252 433.8778,328.49986 433.87781,329.12485 C 433.8778,329.74205 434.09265,330.26549 434.52234,330.69516 C 434.95202,331.11705 435.47936,331.32798 436.10437,331.32797 C 436.72936,331.32798 437.25671,331.11705 437.6864,330.69516 C 438.11608,330.26549 438.33092,329.74205 438.33093,329.12485 C 438.33092,328.50767 438.11217,327.98033 437.67468,327.54282 C 437.24499,327.10533 436.72155,326.88658 436.10437,326.88657 M 436.10437,325.37485 C 436.60436,325.37487 437.08483,325.47252 437.54578,325.66782 C 438.00671,325.85533 438.40514,326.12877 438.74109,326.48813 C 439.10045,326.83971 439.36999,327.23814 439.54968,327.68344 C 439.72936,328.12877 439.8192,328.60924 439.81921,329.12485 C 439.8192,330.15611 439.45592,331.03111 438.72937,331.74985 C 438.01061,332.4608 437.1278,332.81626 436.08093,332.81625 C 435.02624,332.81626 434.14733,332.4647 433.44421,331.76157 C 432.74109,331.05845 432.38952,330.17955 432.38953,329.12485 C 432.38952,328.07799 432.7489,327.19127 433.46765,326.46469 C 434.1864,325.73815 435.0653,325.37487 436.10437,325.37485"
       style="font-size:12px;font-style:normal;font-weight:normal;line-height:125%;fill:#000000;fill-opacity:1;stroke:none;stroke-width:1px;stroke-linecap:butt;stroke-linejoin:miter;stroke-opacity:1;font-family:Bitstream Vera Sans"
       id="text5927" />
    <path
       d="M 311.12366,190.55664 C 311.12364,192.58008 310.45177,194.20899 309.10803,195.44336 C 307.77208,196.67774 306.05333,197.35352 303.95178,197.4707 L 303.95178,202.13477 L 301.76038,202.13477 L 301.76038,197.4707 C 300.74474,197.42383 299.80334,197.24414 298.93616,196.93164 C 298.07678,196.61133 297.33068,196.18164 296.69788,195.64258 C 296.03381,195.06446 295.51819,194.39258 295.151,193.62695 C 294.78381,192.86133 294.60022,191.95508 294.60022,190.9082 C 294.60022,189.66602 294.83069,188.50977 295.29163,187.43945 C 295.75256,186.36915 296.50256,185.29493 297.54163,184.2168 L 300.22522,184.2168 L 300.22522,184.41602 C 299.16271,185.18947 298.3424,186.09571 297.76428,187.13477 C 297.18615,188.17384 296.89709,189.34571 296.89709,190.65039 C 296.89709,192.12696 297.33459,193.31446 298.20959,194.21289 C 299.0924,195.11133 300.27209,195.58399 301.74866,195.63086 L 301.74866,183.91211 C 302.00646,183.8965 302.2799,183.88869 302.56897,183.88867 C 302.86584,183.88087 303.16662,183.87697 303.47131,183.87695 C 305.8463,183.87697 307.71349,184.4629 309.07288,185.63477 C 310.44005,186.79884 311.12364,188.43946 311.12366,190.55664 M 308.8385,190.43945 C 308.83849,189.00196 308.40099,187.85743 307.526,187.00586 C 306.65099,186.1465 305.45958,185.71681 303.95178,185.7168 L 303.95178,195.63086 C 305.56115,195.55274 306.77599,195.06055 307.59631,194.1543 C 308.42442,193.24805 308.83849,192.00977 308.8385,190.43945"
       style="font-size:24px;font-style:normal;font-variant:normal;font-weight:normal;font-stretch:normal;text-align:start;line-height:125%;writing-mode:lr-tb;text-anchor:start;fill:#ff8b12;fill-opacity:1;stroke:none;stroke-width:1px;stroke-linecap:butt;stroke-linejoin:miter;stroke-opacity:1;font-family:Bitstream Vera Sans"
       id="text5931" />
    <path
       d="M 358.50311,180.72318 C 358.5031,182.74662 357.83122,184.37552 356.48749,185.60989 C 355.15154,186.84427 353.43279,187.52005 351.33124,187.63724 L 351.33124,192.3013 L 349.13983,192.3013 L 349.13983,187.63724 C 348.1242,187.59036 347.18279,187.41068 346.31561,187.09818 C 345.45623,186.77786 344.71014,186.34818 344.07733,185.80911 C 343.41327,185.23099 342.89764,184.55912 342.53046,183.79349 C 342.16327,183.02787 341.97967,182.12162 341.97968,181.07474 C 341.97967,179.83256 342.21014,178.67631 342.67108,177.60599 C 343.13202,176.53569 343.88202,175.46147 344.92108,174.38333 L 347.60468,174.38333 L 347.60468,174.58255 C 346.54217,175.356 345.72186,176.26225 345.14374,177.3013 C 344.56561,178.34037 344.27655,179.51225 344.27655,180.81693 C 344.27655,182.29349 344.71405,183.48099 345.58905,184.37943 C 346.47186,185.27786 347.65154,185.75052 349.12811,185.79739 L 349.12811,174.07864 C 349.38592,174.06303 349.65935,174.05522 349.94843,174.05521 C 350.24529,174.04741 350.54607,174.0435 350.85077,174.04349 C 353.22576,174.0435 355.09294,174.62944 356.45233,175.8013 C 357.8195,176.96537 358.5031,178.606 358.50311,180.72318 M 356.21796,180.60599 C 356.21794,179.1685 355.78044,178.02397 354.90546,177.17239 C 354.03044,176.31303 352.83904,175.88334 351.33124,175.88333 L 351.33124,185.79739 C 352.9406,185.71927 354.15544,185.22708 354.97577,184.32083 C 355.80388,183.41459 356.21794,182.17631 356.21796,180.60599"
       style="font-size:24px;font-style:normal;font-variant:normal;font-weight:normal;font-stretch:normal;text-align:start;line-height:125%;writing-mode:lr-tb;text-anchor:start;fill:#ff8b12;fill-opacity:1;stroke:none;stroke-width:1px;stroke-linecap:butt;stroke-linejoin:miter;stroke-opacity:1;font-family:Bitstream Vera Sans"
       id="text5935" />
    <path
       d="M 356.71521,458.74225 C 356.71519,460.76569 356.04332,462.3946 354.69958,463.62897 C 353.36363,464.86334 351.64488,465.53912 349.54333,465.65631 L 349.54333,470.32037 L 347.35193,470.32037 L 347.35193,465.65631 C 346.3363,465.60944 345.39489,465.42975 344.52771,465.11725 C 343.66833,464.79694 342.92224,464.36725 342.28943,463.82819 C 341.62536,463.25006 341.10974,462.57819 340.74255,461.81256 C 340.37536,461.04694 340.19177,460.14069 340.19177,459.09381 C 340.19177,457.85163 340.42224,456.69538 340.88318,455.62506 C 341.34411,454.55476 342.09411,453.48054 343.13318,452.4024 L 345.81677,452.4024 L 345.81677,452.60162 C 344.75427,453.37507 343.93396,454.28132 343.35583,455.32037 C 342.77771,456.35945 342.48864,457.53132 342.48865,458.836 C 342.48864,460.31257 342.92614,461.50007 343.80115,462.3985 C 344.68395,463.29694 345.86364,463.76959 347.34021,463.81647 L 347.34021,452.09772 C 347.59801,452.08211 347.87145,452.07429 348.16052,452.07428 C 348.45739,452.06648 348.75817,452.06257 349.06287,452.06256 C 351.43785,452.06257 353.30504,452.64851 354.66443,453.82037 C 356.0316,454.98445 356.71519,456.62507 356.71521,458.74225 M 354.43005,458.62506 C 354.43004,457.18757 353.99254,456.04304 353.11755,455.19147 C 352.24254,454.3321 351.05114,453.90242 349.54333,453.9024 L 349.54333,463.81647 C 351.1527,463.73834 352.36754,463.24616 353.18787,462.3399 C 354.01598,461.43366 354.43004,460.19538 354.43005,458.62506"
       style="font-size:24px;font-style:normal;font-variant:normal;font-weight:normal;font-stretch:normal;text-align:start;line-height:125%;writing-mode:lr-tb;text-anchor:start;fill:#ff8b12;fill-opacity:1;stroke:none;stroke-width:1px;stroke-linecap:butt;stroke-linejoin:miter;stroke-opacity:1;font-family:Bitstream Vera Sans"
       id="text5939" />
    <path
       d="M 309.33575,468.57571 C 309.33574,470.59916 308.66386,472.22806 307.32013,473.46243 C 305.98418,474.69681 304.26543,475.37259 302.16388,475.48978 L 302.16388,480.15384 L 299.97247,480.15384 L 299.97247,475.48978 C 298.95684,475.4429 298.01544,475.26321 297.14825,474.95071 C 296.28887,474.6304 295.54278,474.20072 294.90997,473.66165 C 294.24591,473.08353 293.73028,472.41165 293.3631,471.64603 C 292.99591,470.88041 292.81232,469.97416 292.81232,468.92728 C 292.81232,467.6851 293.04278,466.52885 293.50372,465.45853 C 293.96466,464.38823 294.71466,463.31401 295.75372,462.23587 L 298.43732,462.23587 L 298.43732,462.43509 C 297.37481,463.20854 296.5545,464.11479 295.97638,465.15384 C 295.39825,466.19291 295.10919,467.36478 295.10919,468.66946 C 295.10919,470.14603 295.54669,471.33353 296.42169,472.23196 C 297.3045,473.1304 298.48419,473.60306 299.96075,473.64993 L 299.96075,461.93118 C 300.21856,461.91557 300.492,461.90776 300.78107,461.90775 C 301.07793,461.89995 301.37871,461.89604 301.68341,461.89603 C 304.0584,461.89604 305.92558,462.48198 307.28497,463.65384 C 308.65214,464.81791 309.33574,466.45854 309.33575,468.57571 M 307.0506,468.45853 C 307.05058,467.02103 306.61308,465.8765 305.7381,465.02493 C 304.86308,464.16557 303.67168,463.73588 302.16388,463.73587 L 302.16388,473.64993 C 303.77324,473.57181 304.98808,473.07962 305.80841,472.17337 C 306.63652,471.26712 307.05058,470.02884 307.0506,468.45853"
       style="font-size:24px;font-style:normal;font-variant:normal;font-weight:normal;font-stretch:normal;text-align:start;line-height:125%;writing-mode:lr-tb;text-anchor:start;fill:#ff8b12;fill-opacity:1;stroke:none;stroke-width:1px;stroke-linecap:butt;stroke-linejoin:miter;stroke-opacity:1;font-family:Bitstream Vera Sans"
       id="text5943" />
    <path
       d="M 314.32083,14.614611 C 314.32081,16.638053 313.64894,18.266958 312.30521,19.501329 C 310.96925,20.735705 309.25051,21.411486 307.14896,21.528673 L 307.14896,26.192736 L 304.95755,26.192736 L 304.95755,21.528673 C 303.94192,21.481798 303.00051,21.302111 302.13333,20.989611 C 301.27395,20.669299 300.52786,20.239612 299.89505,19.700548 C 299.23098,19.122425 298.71536,18.450551 298.34818,17.684923 C 297.98099,16.919303 297.79739,16.013054 297.79739,14.966173 C 297.79739,13.723993 298.02786,12.567744 298.4888,11.497423 C 298.94974,10.427122 299.69973,9.3529039 300.7388,8.2747669 L 303.42239,8.2747669 L 303.42239,8.4739857 C 302.35989,9.2474353 301.53958,10.153684 300.96146,11.192736 C 300.38333,12.231807 300.09427,13.403681 300.09427,14.708361 C 300.09427,16.184928 300.53176,17.372427 301.40677,18.270861 C 302.28958,19.1693 303.46926,19.641956 304.94583,19.688829 L 304.94583,7.9700794 C 305.20364,7.9544678 305.47707,7.9466553 305.76614,7.9466419 C 306.06301,7.9388428 306.36379,7.9349366 306.66849,7.9349232 C 309.04348,7.9349366 310.91066,8.5208735 312.27005,9.6927357 C 313.63722,10.856809 314.32081,12.497432 314.32083,14.614611 M 312.03568,14.497423 C 312.03566,13.059931 311.59816,11.915401 310.72318,11.063829 C 309.84816,10.204466 308.65676,9.7747785 307.14896,9.7747669 L 307.14896,19.688829 C 308.75832,19.610706 309.97316,19.118519 310.79349,18.212267 C 311.6216,17.306021 312.03566,16.067741 312.03568,14.497423 M 318.10599,10.466173 L 333.12943,10.466173 L 333.12943,12.434923 L 318.10599,12.434923 L 318.10599,10.466173 M 318.10599,15.247423 L 333.12943,15.247423 L 333.12943,17.239611 L 318.10599,17.239611 L 318.10599,15.247423 M 338.30911,21.001329 L 338.30911,18.845079 C 338.90286,19.126332 339.50442,19.341175 340.1138,19.489611 C 340.72317,19.63805 341.32083,19.712269 341.90677,19.712267 C 343.46926,19.712269 344.66067,19.188832 345.48099,18.141954 C 346.3091,17.087271 346.78176,15.489617 346.89896,13.348986 C 346.44582,14.020868 345.8716,14.536493 345.1763,14.895861 C 344.48098,15.255242 343.71145,15.434929 342.86771,15.434923 C 341.1177,15.434929 339.73098,14.907586 338.70755,13.852892 C 337.69192,12.7904 337.18411,11.341183 337.18411,9.5052357 C 337.18411,7.7083743 337.71536,6.2669695 338.77786,5.1810169 C 339.84036,4.0950967 341.25442,3.5521285 343.02005,3.5521107 C 345.04348,3.5521285 346.58645,4.3294715 347.64896,5.8841419 C 348.71926,7.4310309 349.25441,9.6810286 349.25443,12.634142 C 349.25441,15.39196 348.59816,17.595083 347.28568,19.243517 C 345.98098,20.884142 344.22317,21.704454 342.01224,21.704454 C 341.41848,21.704454 340.81692,21.64586 340.20755,21.528673 C 339.59817,21.411486 338.96536,21.235705 338.30911,21.001329 M 343.02005,13.583361 C 344.08254,13.583368 344.92238,13.220088 345.53958,12.493517 C 346.16457,11.766964 346.47707,10.770871 346.47708,9.5052357 C 346.47707,8.2474363 346.16457,7.2552498 345.53958,6.5286732 C 344.92238,5.7943137 344.08254,5.4271266 343.02005,5.4271107 C 341.95754,5.4271266 341.11379,5.7943137 340.4888,6.5286732 C 339.87161,7.2552498 339.56301,8.2474363 339.56302,9.5052357 C 339.56301,10.770871 339.87161,11.766964 340.4888,12.493517 C 341.11379,13.220088 341.95754,13.583368 343.02005,13.583361 M 358.58255,5.4271107 C 357.36379,5.4271266 356.44583,6.0286885 355.82864,7.2317982 C 355.21926,8.4271236 354.91458,10.227903 354.91458,12.634142 C 354.91458,15.032586 355.21926,16.833365 355.82864,18.036486 C 356.44583,19.2318 357.36379,19.829456 358.58255,19.829454 C 359.8091,19.829456 360.72707,19.2318 361.33646,18.036486 C 361.95363,16.833365 362.26223,15.032586 362.26224,12.634142 C 362.26223,10.227903 361.95363,8.4271236 361.33646,7.2317982 C 360.72707,6.0286885 359.8091,5.4271266 358.58255,5.4271107 M 358.58255,3.5521107 C 360.54348,3.5521285 362.03957,4.3294715 363.07083,5.8841419 C 364.10988,7.4310309 364.62941,9.6810286 364.62943,12.634142 C 364.62941,15.57946 364.10988,17.829458 363.07083,19.384142 C 362.03957,20.931017 360.54348,21.704454 358.58255,21.704454 C 356.62161,21.704454 355.12161,20.931017 354.08255,19.384142 C 353.0513,17.829458 352.53567,15.57946 352.53568,12.634142 C 352.53567,9.6810286 353.0513,7.4310309 354.08255,5.8841419 C 355.12161,4.3294715 356.62161,3.5521285 358.58255,3.5521107 M 372.23489,5.0638294 C 371.60989,5.0638457 371.08255,5.2825955 370.65286,5.7200794 C 370.22317,6.1497821 370.00833,6.6771254 370.00833,7.3021107 C 370.00833,7.9193116 370.22317,8.4427486 370.65286,8.8724232 C 371.08255,9.2943102 371.60989,9.5052475 372.23489,9.5052357 C 372.85989,9.5052475 373.38723,9.2943102 373.81693,8.8724232 C 374.2466,8.4427486 374.46145,7.9193116 374.46146,7.3021107 C 374.46145,6.6849379 374.2427,6.1575946 373.80521,5.7200794 C 373.37551,5.2825955 372.85207,5.0638457 372.23489,5.0638294 M 372.23489,3.5521107 C 372.73489,3.5521285 373.21536,3.6497846 373.6763,3.8450794 C 374.13723,4.0325968 374.53567,4.306034 374.87161,4.6653919 C 375.23098,5.0169708 375.50051,5.4154079 375.68021,5.8607044 C 375.85988,6.306032 375.94973,6.7865003 375.94974,7.3021107 C 375.94973,8.3333737 375.58645,9.2083728 374.85989,9.9271107 C 374.14114,10.638059 373.25832,10.993527 372.21146,10.993517 C 371.15676,10.993527 370.27786,10.641965 369.57474,9.9388294 C 368.87161,9.2357166 368.52005,8.3568112 368.52005,7.3021107 C 368.52005,6.2552508 368.87942,5.3685329 369.59818,4.6419544 C 370.31692,3.9154094 371.19583,3.5521285 372.23489,3.5521107"
       style="font-size:12px;font-style:normal;font-weight:normal;line-height:125%;fill:#000000;fill-opacity:1;stroke:none;stroke-width:1px;stroke-linecap:butt;stroke-linejoin:miter;stroke-opacity:1;font-family:Bitstream Vera Sans"
       id="text5947" />
    <path
       d="M 311.63898,635.01727 C 311.63896,637.04072 310.96708,638.66962 309.62335,639.90399 C 308.2874,641.13837 306.56865,641.81415 304.4671,641.93134 L 304.4671,646.5954 L 302.2757,646.5954 L 302.2757,641.93134 C 301.26006,641.88446 300.31866,641.70477 299.45148,641.39227 C 298.5921,641.07196 297.846,640.64227 297.2132,640.10321 C 296.54913,639.52509 296.03351,638.85321 295.66632,638.08759 C 295.29913,637.32196 295.11554,636.41572 295.11554,635.36884 C 295.11554,634.12666 295.34601,632.97041 295.80695,631.90009 C 296.26788,630.82978 297.01788,629.75557 298.05695,628.67743 L 300.74054,628.67743 L 300.74054,628.87665 C 299.67803,629.6501 298.85772,630.55635 298.2796,631.5954 C 297.70147,632.63447 297.41241,633.80634 297.41241,635.11102 C 297.41241,636.58759 297.84991,637.77509 298.72491,638.67352 C 299.60772,639.57196 300.78741,640.04462 302.26398,640.09149 L 302.26398,628.37274 C 302.52178,628.35713 302.79522,628.34932 303.08429,628.3493 C 303.38116,628.34151 303.68194,628.3376 303.98663,628.33759 C 306.36162,628.3376 308.22881,628.92354 309.5882,630.0954 C 310.95537,631.25947 311.63896,632.90009 311.63898,635.01727 M 309.35382,634.90009 C 309.35381,633.46259 308.91631,632.31806 308.04132,631.46649 C 307.16631,630.60713 305.9749,630.17744 304.4671,630.17743 L 304.4671,640.09149 C 306.07646,640.01337 307.29131,639.52118 308.11163,638.61493 C 308.93974,637.70868 309.35381,636.4704 309.35382,634.90009 M 315.42413,630.86884 L 330.44757,630.86884 L 330.44757,632.83759 L 315.42413,632.83759 L 315.42413,630.86884 M 315.42413,635.65009 L 330.44757,635.65009 L 330.44757,637.64227 L 315.42413,637.64227 L 315.42413,635.65009 M 334.16241,634.23212 L 340.47882,634.23212 L 340.47882,636.15399 L 334.16241,636.15399 L 334.16241,634.23212 M 344.29913,641.40399 L 344.29913,639.24774 C 344.89288,639.52899 345.49444,639.74384 346.10382,639.89227 C 346.71319,640.04071 347.31085,640.11493 347.89679,640.11493 C 349.45928,640.11493 350.65069,639.59149 351.47101,638.54462 C 352.29912,637.48993 352.77178,635.89228 352.88898,633.75165 C 352.43584,634.42353 351.86162,634.93915 351.16632,635.29852 C 350.471,635.6579 349.70147,635.83759 348.85773,635.83759 C 347.10772,635.83759 345.721,635.31025 344.69757,634.25555 C 343.68194,633.19306 343.17413,631.74385 343.17413,629.9079 C 343.17413,628.11104 343.70538,626.66963 344.76788,625.58368 C 345.83038,624.49776 347.24444,623.95479 349.01007,623.95477 C 351.0335,623.95479 352.57647,624.73213 353.63898,626.2868 C 354.70928,627.83369 355.24443,630.08369 355.24445,633.0368 C 355.24443,635.79462 354.58818,637.99775 353.2757,639.64618 C 351.971,641.2868 350.21319,642.10712 348.00226,642.10712 C 347.4085,642.10712 346.80694,642.04852 346.19757,641.93134 C 345.58819,641.81415 344.95538,641.63837 344.29913,641.40399 M 349.01007,633.98602 C 350.07256,633.98603 350.91241,633.62275 351.5296,632.89618 C 352.15459,632.16963 352.46709,631.17353 352.4671,629.9079 C 352.46709,628.6501 352.15459,627.65791 351.5296,626.93134 C 350.91241,626.19698 350.07256,625.82979 349.01007,625.82977 C 347.94756,625.82979 347.10382,626.19698 346.47882,626.93134 C 345.86163,627.65791 345.55304,628.6501 345.55304,629.9079 C 345.55304,631.17353 345.86163,632.16963 346.47882,632.89618 C 347.10382,633.62275 347.94756,633.98603 349.01007,633.98602 M 364.57257,625.82977 C 363.35381,625.82979 362.43585,626.43135 361.81866,627.63446 C 361.20929,628.82979 360.9046,630.63057 360.9046,633.0368 C 360.9046,635.43525 361.20929,637.23603 361.81866,638.43915 C 362.43585,639.63446 363.35381,640.23212 364.57257,640.23212 C 365.79912,640.23212 366.71709,639.63446 367.32648,638.43915 C 367.94365,637.23603 368.25225,635.43525 368.25226,633.0368 C 368.25225,630.63057 367.94365,628.82979 367.32648,627.63446 C 366.71709,626.43135 365.79912,625.82979 364.57257,625.82977 M 364.57257,623.95477 C 366.5335,623.95479 368.02959,624.73213 369.06085,626.2868 C 370.0999,627.83369 370.61943,630.08369 370.61945,633.0368 C 370.61943,635.98212 370.0999,638.23212 369.06085,639.7868 C 368.02959,641.33368 366.5335,642.10712 364.57257,642.10712 C 362.61163,642.10712 361.11163,641.33368 360.07257,639.7868 C 359.04132,638.23212 358.52569,635.98212 358.5257,633.0368 C 358.52569,630.08369 359.04132,627.83369 360.07257,626.2868 C 361.11163,624.73213 362.61163,623.95479 364.57257,623.95477 M 378.22491,625.46649 C 377.59991,625.46651 377.07257,625.68526 376.64288,626.12274 C 376.21319,626.55244 375.99835,627.07979 375.99835,627.70477 C 375.99835,628.32197 376.21319,628.84541 376.64288,629.27509 C 377.07257,629.69697 377.59991,629.90791 378.22491,629.9079 C 378.84991,629.90791 379.37725,629.69697 379.80695,629.27509 C 380.23663,628.84541 380.45147,628.32197 380.45148,627.70477 C 380.45147,627.0876 380.23272,626.56026 379.79523,626.12274 C 379.36553,625.68526 378.8421,625.46651 378.22491,625.46649 M 378.22491,623.95477 C 378.72491,623.95479 379.20538,624.05245 379.66632,624.24774 C 380.12725,624.43526 380.52569,624.7087 380.86163,625.06805 C 381.221,625.41963 381.49053,625.81807 381.67023,626.26337 C 381.8499,626.70869 381.93975,627.18916 381.93976,627.70477 C 381.93975,628.73604 381.57647,629.61104 380.84991,630.32977 C 380.13116,631.04072 379.24835,631.39619 378.20148,631.39618 C 377.14678,631.39619 376.26788,631.04463 375.56476,630.34149 C 374.86163,629.63838 374.51007,628.75947 374.51007,627.70477 C 374.51007,626.65791 374.86944,625.7712 375.5882,625.04462 C 376.30694,624.31807 377.18585,623.95479 378.22491,623.95477"
       style="font-size:12px;font-style:normal;font-weight:normal;line-height:125%;fill:#000000;fill-opacity:1;stroke:none;stroke-width:1px;stroke-linecap:butt;stroke-linejoin:miter;stroke-opacity:1;font-family:Bitstream Vera Sans"
       id="text5951" />
    <path
       d="M 262.73895,390.1835 C 262.73893,392.20694 262.06706,393.83585 260.72333,395.07022 C 259.38738,396.3046 257.66863,396.98038 255.56708,397.09756 L 255.56708,401.76163 L 253.37567,401.76163 L 253.37567,397.09756 C 252.36004,397.05069 251.41863,396.871 250.55145,396.5585 C 249.69207,396.23819 248.94598,395.8085 248.31317,395.26944 C 247.64911,394.69132 247.13348,394.01944 246.7663,393.25381 C 246.39911,392.48819 246.21551,391.58195 246.21552,390.53506 C 246.21551,389.29288 246.44598,388.13664 246.90692,387.06631 C 247.36786,385.99601 248.11786,384.9218 249.15692,383.84366 L 251.84052,383.84366 L 251.84052,384.04288 C 250.77801,384.81633 249.9577,385.72258 249.37958,386.76163 C 248.80145,387.8007 248.51239,388.97257 248.51239,390.27725 C 248.51239,391.75382 248.94989,392.94132 249.82489,393.83975 C 250.7077,394.73819 251.88738,395.21085 253.36395,395.25772 L 253.36395,383.53897 C 253.62176,383.52336 253.89519,383.51555 254.18427,383.51553 C 254.48113,383.50773 254.78191,383.50383 255.08661,383.50381 C 257.4616,383.50383 259.32878,384.08977 260.68817,385.26163 C 262.05534,386.4257 262.73893,388.06632 262.73895,390.1835 M 260.4538,390.06631 C 260.45378,388.62882 260.01628,387.48429 259.1413,386.63272 C 258.26628,385.77336 257.07488,385.34367 255.56708,385.34366 L 255.56708,395.25772 C 257.17644,395.1796 258.39128,394.68741 259.21161,393.78116 C 260.03972,392.87491 260.45378,391.63663 260.4538,390.06631 M 266.52411,386.03506 L 281.54755,386.03506 L 281.54755,388.00381 L 266.52411,388.00381 L 266.52411,386.03506 M 266.52411,390.81631 L 281.54755,390.81631 L 281.54755,392.8085 L 266.52411,392.8085 L 266.52411,390.81631 M 291.71942,380.996 C 290.50066,380.99602 289.5827,381.59758 288.96552,382.80069 C 288.35614,383.99602 288.05145,385.79679 288.05145,388.20303 C 288.05145,390.60148 288.35614,392.40226 288.96552,393.60538 C 289.5827,394.80069 290.50066,395.39835 291.71942,395.39835 C 292.94598,395.39835 293.86394,394.80069 294.47333,393.60538 C 295.0905,392.40226 295.3991,390.60148 295.39911,388.20303 C 295.3991,385.79679 295.0905,383.99602 294.47333,382.80069 C 293.86394,381.59758 292.94598,380.99602 291.71942,380.996 M 291.71942,379.121 C 293.68035,379.12102 295.17644,379.89836 296.2077,381.45303 C 297.24675,382.99992 297.76628,385.24992 297.7663,388.20303 C 297.76628,391.14835 297.24675,393.39835 296.2077,394.95303 C 295.17644,396.49991 293.68035,397.27335 291.71942,397.27335 C 289.75848,397.27335 288.25848,396.49991 287.21942,394.95303 C 286.18817,393.39835 285.67254,391.14835 285.67255,388.20303 C 285.67254,385.24992 286.18817,382.99992 287.21942,381.45303 C 288.25848,379.89836 289.75848,379.12102 291.71942,379.121 M 305.37177,380.63272 C 304.74676,380.63274 304.21942,380.85149 303.78973,381.28897 C 303.36004,381.71867 303.1452,382.24602 303.1452,382.871 C 303.1452,383.4882 303.36004,384.01164 303.78973,384.44131 C 304.21942,384.8632 304.74676,385.07414 305.37177,385.07413 C 305.99676,385.07414 306.5241,384.8632 306.9538,384.44131 C 307.38348,384.01164 307.59832,383.4882 307.59833,382.871 C 307.59832,382.25383 307.37957,381.72649 306.94208,381.28897 C 306.51238,380.85149 305.98895,380.63274 305.37177,380.63272 M 305.37177,379.121 C 305.87176,379.12102 306.35223,379.21868 306.81317,379.41397 C 307.2741,379.60149 307.67254,379.87493 308.00848,380.23428 C 308.36785,380.58586 308.63738,380.9843 308.81708,381.4296 C 308.99676,381.87492 309.0866,382.35539 309.08661,382.871 C 309.0866,383.90227 308.72332,384.77726 307.99677,385.496 C 307.27801,386.20695 306.3952,386.56242 305.34833,386.56241 C 304.29364,386.56242 303.41473,386.21086 302.71161,385.50772 C 302.00848,384.80461 301.65692,383.9257 301.65692,382.871 C 301.65692,381.82414 302.01629,380.93742 302.73505,380.21085 C 303.45379,379.4843 304.3327,379.12102 305.37177,379.121"
       style="font-size:12px;font-style:normal;font-weight:normal;line-height:125%;fill:#000000;fill-opacity:1;stroke:none;stroke-width:1px;stroke-linecap:butt;stroke-linejoin:miter;stroke-opacity:1;font-family:Bitstream Vera Sans"
       id="text6112" />
    <path
       d="M 145.51285,309.73046 L 158.40162,303.28608 L 143.6716,302.36545"
       style="fill:none;fill-opacity:0.75;fill-rule:evenodd;stroke:#ff8300;stroke-width:1px;stroke-linecap:butt;stroke-linejoin:miter;stroke-opacity:1"
       id="path7034" />
    <path
       d="M 510.17279,309.75489 L 497.28402,303.31051 L 512.01404,302.38988"
       style="fill:none;fill-opacity:0.75;fill-rule:evenodd;stroke:#ff8300;stroke-width:1px;stroke-linecap:butt;stroke-linejoin:miter;stroke-opacity:1"
       id="path7036" />
    <path
       d="M 349.34036,503.45779 L 344.44849,517.01213 L 341.81048,502.49105"
       style="fill:none;fill-opacity:0.75;fill-rule:evenodd;stroke:#ff8300;stroke-width:1px;stroke-linecap:butt;stroke-linejoin:miter;stroke-opacity:1"
       id="path7038" />
    <path
       d="M 299.095,509.1034 L 304.28977,522.54456 L 306.60129,507.96794"
       style="fill:none;fill-opacity:0.75;fill-rule:evenodd;stroke:#ff8300;stroke-width:1px;stroke-linecap:butt;stroke-linejoin:miter;stroke-opacity:1"
       id="path7040" />
    <path
       d="M 349.78351,150.75748 L 344.16614,137.48737 L 342.31689,152.12981"
       style="fill:none;fill-opacity:0.75;fill-rule:evenodd;stroke:#ff8300;stroke-width:1px;stroke-linecap:butt;stroke-linejoin:miter;stroke-opacity:1"
       id="path7042" />
    <path
       d="M 301.94422,166.35221 L 307.02003,152.86567 L 309.46025,167.4213"
       style="fill:none;fill-opacity:0.75;fill-rule:evenodd;stroke:#ff8300;stroke-width:1px;stroke-linecap:butt;stroke-linejoin:miter;stroke-opacity:1"
       id="path7044" />
  </g>
</svg>
